<svg width="28" height="27" viewBox="0 0 28 27" fill="none" xmlns="http://www.w3.org/2000/svg">
<path d="M13.0728 1.21993C13.4144 0.398639 14.5778 0.398636 14.9194 1.21993L17.9936 8.61112C18.1376 8.95735 18.4632 9.19392 18.837 9.22389L26.8164 9.86359C27.703 9.93468 28.0626 11.0412 27.387 11.6199L21.3076 16.8276C21.0228 17.0715 20.8984 17.4543 20.9854 17.819L22.8428 25.6056C23.0492 26.4708 22.1079 27.1547 21.3488 26.691L14.5173 22.5184C14.1973 22.3229 13.7949 22.3229 13.4748 22.5184L6.64336 26.691C5.88426 27.1547 4.943 26.4708 5.14939 25.6056L7.00677 17.819C7.09377 17.4543 6.9694 17.0715 6.68461 16.8276L0.605147 11.6199C-0.0703898 11.0412 0.289134 9.93468 1.17579 9.86359L9.1552 9.22389C9.52899 9.19392 9.8546 8.95735 9.9986 8.61112L13.0728 1.21993Z" fill="#BCBEC0"/>
</svg>
