<svg width="102" height="124" viewBox="0 0 102 124" fill="none" xmlns="http://www.w3.org/2000/svg">
<path d="M51.8402 1.47212L54.8125 7.49559C54.9482 7.77099 55.2128 7.96227 55.5166 8.00704L62.1642 8.97297C62.9307 9.08421 63.2373 10.0271 62.6824 10.5684L57.8718 15.2569C57.652 15.4713 57.5502 15.7819 57.6032 16.0845L58.7387 22.7049C58.8702 23.4686 58.0685 24.052 57.382 23.6911L51.4359 20.5654C51.1632 20.4216 50.8376 20.4216 50.5649 20.5654L44.6188 23.6911C43.9323 24.052 43.1305 23.4686 43.2621 22.7049L44.3976 16.0845C44.4492 15.7806 44.3488 15.4713 44.129 15.2569L39.3184 10.5684C38.7635 10.0271 39.0701 9.08421 39.8366 8.97297L46.4841 8.00704C46.7894 7.96227 47.0526 7.77099 47.1882 7.49559L50.1606 1.47212C50.5066 0.777522 51.4969 0.777522 51.8402 1.47212Z" fill="#F4B71A"/>
<path d="M95.1213 94.9327H94.8473C98.3121 94.9327 101.148 92.0973 101.148 88.6324V87.3762C101.148 83.9113 98.3121 81.076 94.8473 81.076H94.0984C97.5633 81.076 100.399 78.2406 100.399 74.7757V73.5181C100.399 70.0533 97.5633 67.2179 94.0984 67.2179L67.7566 67.26C70.5363 40.6753 65.1383 34.1906 54.4276 36.68C53.71 51.7414 44.1728 72.2741 34.4674 72.8357C29.2647 87.8198 28.988 102.458 34.4674 116.689C37.9296 120.497 46.3719 122.851 54.3991 122.649H89.9186C93.3835 122.649 96.2189 119.813 96.2189 116.349V115.092C96.2189 111.627 93.3835 108.792 89.9186 108.792H95.1227C98.5875 108.792 101.423 105.957 101.423 102.492V101.236C101.422 97.768 98.5862 94.9327 95.1213 94.9327Z" fill="#FFC89F"/>
<path d="M34.4683 70.2532C34.4683 68.4109 32.7793 66.9023 30.7145 66.9023H4.33194C2.26714 66.9023 0.578125 68.4096 0.578125 70.2532V119.697C0.578125 121.54 2.26714 123.048 4.33194 123.048H30.7145C32.7793 123.048 34.4683 121.54 34.4683 119.697V116.688V72.8349V70.2532Z" fill="#496874"/>
<path d="M92.6993 81.7541H82.2369C81.8625 81.7541 81.5586 81.4502 81.5586 81.0758C81.5586 80.7013 81.8625 80.3975 82.2369 80.3975H92.6993C93.0737 80.3975 93.3776 80.7013 93.3776 81.0758C93.3776 81.4502 93.0751 81.7541 92.6993 81.7541Z" fill="#DD9A76"/>
<path d="M93.4495 95.6105H82.2369C81.8625 95.6105 81.5586 95.3066 81.5586 94.9322C81.5586 94.5578 81.8625 94.2539 82.2369 94.2539H93.4495C93.824 94.2539 94.1278 94.5578 94.1278 94.9322C94.1278 95.3066 93.824 95.6105 93.4495 95.6105Z" fill="#DD9A76"/>
<path d="M88.5181 109.469H82.2369C81.8625 109.469 81.5586 109.165 81.5586 108.791C81.5586 108.416 81.8625 108.112 82.2369 108.112H88.5181C88.8926 108.112 89.1965 108.416 89.1965 108.791C89.1965 109.165 88.8939 109.469 88.5181 109.469Z" fill="#DD9A76"/>
<path d="M17.9216 112.136C20.2428 112.136 22.1245 110.255 22.1245 107.933C22.1245 105.612 20.2428 103.73 17.9216 103.73C15.6004 103.73 13.7188 105.612 13.7188 107.933C13.7188 110.255 15.6004 112.136 17.9216 112.136Z" fill="#465A65"/>
<path d="M84.2177 14.9643L87.1901 20.9878C87.3258 21.2632 87.5903 21.4545 87.8942 21.4993L94.5417 22.4652C95.3082 22.5764 95.6148 23.5193 95.0599 24.0606L90.2493 28.7491C90.0295 28.9635 89.9278 29.2742 89.9807 29.5767L91.1162 36.1971C91.2478 36.9609 90.446 37.5442 89.7596 37.1834L83.8134 34.0577C83.5407 33.9139 83.2151 33.9139 82.9425 34.0577L76.9963 37.1834C76.3099 37.5442 75.5081 36.9609 75.6397 36.1971L76.7765 29.5767C76.8281 29.2728 76.7277 28.9635 76.5079 28.7491L71.6973 24.0606C71.1424 23.5193 71.449 22.5764 72.2155 22.4652L78.8631 21.4993C79.1683 21.4545 79.4315 21.2632 79.5672 20.9878L82.5395 14.9643C82.8828 14.2684 83.8745 14.2684 84.2177 14.9643Z" fill="#F4B71A"/>
<path d="M20.8089 14.9643L23.7813 20.9878C23.917 21.2632 24.1815 21.4545 24.4854 21.4993L31.1329 22.4652C31.8994 22.5764 32.206 23.5193 31.6512 24.0606L26.8405 28.7491C26.6207 28.9635 26.519 29.2742 26.5719 29.5767L27.7074 36.1971C27.839 36.9609 27.0372 37.5442 26.3508 37.1834L20.4046 34.0577C20.1319 33.9139 19.8064 33.9139 19.5337 34.0577L13.5875 37.1834C12.9011 37.5442 12.0993 36.9609 12.2309 36.1971L13.3664 29.5767C13.4179 29.2728 13.3176 28.9635 13.0978 28.7491L8.28714 24.0606C7.73228 23.5193 8.03888 22.5764 8.80538 22.4652L15.4529 21.4993C15.7581 21.4545 16.0213 21.2632 16.157 20.9878L19.1294 14.9643C19.4753 14.2684 20.4657 14.2684 20.8089 14.9643Z" fill="#F4B71A"/>
</svg>
